<?xml version="1.0" encoding="UTF-8"?>
<svg version="1.1" xmlns="http://www.w3.org/2000/svg" width="390" height="70">
<path d="M0 0 C1.56814453 0.00277954 1.56814453 0.00277954 3.16796875 0.00561523 C4.32683594 0.0049707 5.48570313 0.00432617 6.6796875 0.00366211 C7.89269531 0.02364258 9.10570313 0.04362305 10.35546875 0.06420898 C11.53753906 0.05711914 12.71960938 0.0500293 13.9375 0.04272461 C22.85434043 0.10662699 33.06553762 0.72003947 40.35546875 6.50170898 C40.35546875 7.16170898 40.35546875 7.82170898 40.35546875 8.50170898 C41.01546875 8.50170898 41.67546875 8.50170898 42.35546875 8.50170898 C42.35546875 9.16170898 42.35546875 9.82170898 42.35546875 10.50170898 C43.01546875 10.50170898 43.67546875 10.50170898 44.35546875 10.50170898 C50.7766991 20.95101741 52.31900681 32.74983534 49.60546875 44.87670898 C48.18201807 49.00471597 46.4164243 52.65459196 44.35546875 56.50170898 C43.69546875 56.50170898 43.03546875 56.50170898 42.35546875 56.50170898 C42.35546875 57.16170898 42.35546875 57.82170898 42.35546875 58.50170898 C41.69546875 58.50170898 41.03546875 58.50170898 40.35546875 58.50170898 C40.35546875 59.16170898 40.35546875 59.82170898 40.35546875 60.50170898 C38.62945496 61.32088541 36.89950405 62.13176914 35.16796875 62.93920898 C33.72357422 63.61790039 33.72357422 63.61790039 32.25 64.31030273 C25.30705247 67.16806117 18.12714925 66.75618063 10.73046875 66.81420898 C8.87035156 66.85771484 8.87035156 66.85771484 6.97265625 66.90209961 C5.19375 66.91466797 5.19375 66.91466797 3.37890625 66.92749023 C2.29528809 66.94207275 1.21166992 66.95665527 0.09521484 66.97167969 C-2.64453125 66.50170898 -2.64453125 66.50170898 -4.29150391 64.82951355 C-5.96666922 61.94748942 -6.02485585 60.11058835 -6.03271484 56.78686523 C-6.04217133 55.63887451 -6.05162781 54.49088379 -6.06137085 53.30810547 C-6.05529816 52.07261963 -6.04922546 50.83713379 -6.04296875 49.56420898 C-6.04583893 48.29198486 -6.04870911 47.01976074 -6.05166626 45.70898438 C-6.05370802 43.01881289 -6.04967906 40.32945895 -6.03564453 37.6394043 C-6.0185524 34.19595001 -6.02839689 30.75319724 -6.04636192 27.30976868 C-6.05982531 24.01955713 -6.05039159 20.72942969 -6.04296875 17.43920898 C-6.04904144 16.20372314 -6.05511414 14.9682373 -6.06137085 13.6953125 C-6.05191437 12.54732178 -6.04245789 11.39933105 -6.03271484 10.21655273 C-6.03032806 9.20713623 -6.02794128 8.19771973 -6.02548218 7.15771484 C-5.43920847 3.07018995 -4.14596509 0.78655449 0 0 Z M5.35546875 9.50170898 C5.35546875 25.34170898 5.35546875 41.18170898 5.35546875 57.50170898 C20.44920432 57.9521866 20.44920432 57.9521866 33.16796875 52.81420898 C38.96235392 46.68871609 40.46203279 39.8018637 40.35546875 31.50170898 C39.67347712 24.90212847 37.79176213 18.33591678 32.52734375 13.99389648 C23.9067373 8.23585783 16.00411641 9.50170898 5.35546875 9.50170898 Z " fill="black" transform="translate(86.64453125,1.498291015625)"/>
<path d="M0 0 C3.4375 -0.375 3.4375 -0.375 7 0 C11.99730267 4.08538612 13.99373678 10.88488735 16.1875 16.75 C18.38405825 22.58715018 20.85996318 28.2590144 23.4375 33.9375 C23.82502441 34.79537109 24.21254883 35.65324219 24.61181641 36.53710938 C26.36100248 40.40458257 28.12255225 44.26523883 29.9140625 48.11328125 C30.45804687 49.31339844 31.00203125 50.51351562 31.5625 51.75 C32.03816406 52.77609375 32.51382813 53.8021875 33.00390625 54.859375 C34 58 34 58 34 66 C14.2 66 -5.6 66 -26 66 C-27.16489443 61.34042228 -26.19830398 58.95091329 -24.5 54.6875 C-24.22808838 53.98399414 -23.95617676 53.28048828 -23.67602539 52.55566406 C-21.26020504 46.41628306 -18.49502258 40.46220484 -15.65234375 34.51171875 C-13.74360523 30.45508535 -12.02481158 26.34227309 -10.32421875 22.1953125 C-8.6927655 18.2586495 -7.0107087 14.34574839 -5.3125 10.4375 C-5.01472656 9.74599854 -4.71695312 9.05449707 -4.41015625 8.34204102 C-3.11319947 5.36751486 -1.8055038 2.7082557 0 0 Z M3 14 C2.59160889 14.99854004 2.18321777 15.99708008 1.76245117 17.02587891 C0.23841922 20.75047108 -1.2886663 24.47380497 -2.81665039 28.19677734 C-3.47600567 29.80451149 -4.13454597 31.41258014 -4.79223633 33.02099609 C-5.74082863 35.34041559 -6.69240052 37.65859367 -7.64453125 39.9765625 C-7.9352803 40.68930328 -8.22602936 41.40204407 -8.52558899 42.13638306 C-9.81293754 45.26324735 -11.1331254 48.25317207 -12.7097168 51.25146484 C-14.28329921 54.0974239 -14.28329921 54.0974239 -14 58 C-1.79 58 10.42 58 23 58 C21.453125 54.1225 19.90625 50.245 18.3125 46.25 C17.59767456 44.4561084 17.59767456 44.4561084 16.8684082 42.62597656 C12.15552999 26.5664422 12.15552999 26.5664422 3 14 Z " fill="black" transform="translate(344,2)"/>
<path d="M0 0 C1.134375 0.020625 2.26875 0.04125 3.4375 0.0625 C7.65125262 7.28607592 11.28108594 14.5105916 14.32348633 22.30493164 C15.3947483 24.95667479 16.54174039 27.55319408 17.734375 30.15234375 C18.39167603 31.59130005 18.39167603 31.59130005 19.06225586 33.05932617 C19.51608643 34.05037354 19.96991699 35.0414209 20.4375 36.0625 C22.22716108 39.97097394 23.995689 43.88804133 25.75 47.8125 C26.20439453 48.80121094 26.65878906 49.78992187 27.12695312 50.80859375 C29.50028349 56.15483269 31.05202227 60.19586076 30.4375 66.0625 C25.10311306 66.49974483 25.10311306 66.49974483 22.4375 66.0625 C20.5 63.6875 20.5 63.6875 19.4375 61.0625 C19.1075 60.4025 18.7775 59.7425 18.4375 59.0625 C6.2275 59.0625 -5.9825 59.0625 -18.5625 59.0625 C-19.8825 61.3725 -21.2025 63.6825 -22.5625 66.0625 C-24.89544775 66.10491723 -27.22952567 66.10342937 -29.5625 66.0625 C-30.5625 65.0625 -30.5625 65.0625 -30.796875 62.390625 C-30.52898656 58.58660918 -29.50617137 56.21661176 -27.8125 52.8125 C-25.91313456 48.88922056 -24.07750011 45.00134803 -22.5 40.9375 C-20.75639415 36.46634476 -18.78412845 32.1260283 -16.7734375 27.76953125 C-15.66253061 25.2861168 -14.66025438 22.78996976 -13.6875 20.25 C-11.9747304 15.87997057 -9.97219014 11.6949123 -7.875 7.5 C-7.5651416 6.87955811 -7.2552832 6.25911621 -6.93603516 5.61987305 C-4.12784434 0.07241832 -4.12784434 0.07241832 0 0 Z M-0.5625 14.0625 C-3.13644833 19.02654321 -5.38844129 23.989321 -7.4140625 29.19921875 C-9.28728547 33.86953316 -11.35087 38.45904719 -13.390625 43.05859375 C-14.74421996 45.99090912 -14.74421996 45.99090912 -14.5625 49.0625 C-4.9925 49.0625 4.5775 49.0625 14.4375 49.0625 C12.01690005 40.85173678 12.01690005 40.85173678 8.61328125 33.55078125 C6.60766777 29.30634342 5.09654443 24.86036072 3.54370117 20.43310547 C2.39687264 16.5275509 2.39687264 16.5275509 -0.5625 14.0625 Z " fill="black" transform="translate(173.5625,1.9375)"/>
<path d="M0 0 C1.96839844 -0.00580078 1.96839844 -0.00580078 3.9765625 -0.01171875 C5.00281738 -0.00229248 5.00281738 -0.00229248 6.04980469 0.00732422 C8.11982292 0.02327719 10.18785772 0.00752976 12.2578125 -0.01171875 C13.57523438 -0.00785156 14.89265625 -0.00398437 16.25 0 C17.45108398 0.00338379 18.65216797 0.00676758 19.88964844 0.01025391 C26.97682062 0.79607007 32.61591415 4.15916019 37.390625 9.3984375 C40.72587116 15.63389772 40.1790218 23.56948428 38.328125 30.2109375 C34.92371644 35.81173868 30.94416973 39.35392373 24.50439453 41.03881836 C20.18205553 41.77418511 15.82307229 41.6010989 11.453125 41.5234375 C10.48310547 41.51441406 9.51308594 41.50539062 8.51367188 41.49609375 C6.13906093 41.47269857 3.76497724 41.43991926 1.390625 41.3984375 C1.40109863 42.01364258 1.41157227 42.62884766 1.42236328 43.26269531 C1.46401195 46.05790093 1.48997916 48.85304116 1.515625 51.6484375 C1.54076172 53.10056641 1.54076172 53.10056641 1.56640625 54.58203125 C1.57285156 55.51660156 1.57929688 56.45117188 1.5859375 57.4140625 C1.59641113 58.27290039 1.60688477 59.13173828 1.61767578 60.01660156 C1.37355823 62.57747346 0.68053012 64.19354779 -0.609375 66.3984375 C-3.984375 66.5234375 -3.984375 66.5234375 -7.609375 66.3984375 C-10.29248859 63.71532391 -9.86788485 62.37019602 -9.8840332 58.61938477 C-9.89356522 57.40795303 -9.90309723 56.1965213 -9.91291809 54.94837952 C-9.91200668 53.63381271 -9.91109528 52.31924591 -9.91015625 50.96484375 C-9.91404205 49.60725269 -9.91837648 48.24966284 -9.92314148 46.89207458 C-9.93060895 44.04479026 -9.9303088 41.19762991 -9.92504883 38.3503418 C-9.91925513 34.70051215 -9.93617955 31.05119013 -9.9593935 27.40144444 C-9.97412225 24.59703094 -9.97500373 21.79273992 -9.97188377 18.9882946 C-9.97264741 16.98798771 -9.98652932 14.98769982 -10.00056458 12.98744202 C-9.99433578 11.77285812 -9.98810699 10.55827423 -9.98168945 9.30688477 C-9.98231888 8.23592056 -9.9829483 7.16495636 -9.9835968 6.0615387 C-9.609375 3.3984375 -9.609375 3.3984375 -8.27256775 1.55342102 C-5.61896842 -0.28933804 -3.18564434 0.00900869 0 0 Z M1.390625 9.3984375 C1.390625 16.9884375 1.390625 24.5784375 1.390625 32.3984375 C4.401875 32.4603125 7.413125 32.5221875 10.515625 32.5859375 C11.45293457 32.61324951 12.39024414 32.64056152 13.35595703 32.66870117 C18.4445326 32.7190992 22.0301329 32.32580837 26.390625 29.3984375 C29.10110242 25.16331653 29.72252995 22.59586669 28.828125 17.6484375 C28.03691123 14.77662455 27.55788308 13.571091 25.453125 11.3984375 C22.1499276 9.79688724 19.56447054 9.27646538 15.94140625 9.30078125 C15.17739502 9.30327881 14.41338379 9.30577637 13.6262207 9.30834961 C12.66159912 9.31745361 11.69697754 9.32655762 10.703125 9.3359375 C7.63 9.3565625 4.556875 9.3771875 1.390625 9.3984375 Z " fill="black" transform="translate(222.609375,1.6015625)"/>
<path d="M0 0 C1.2375 -0.12375 2.475 -0.2475 3.75 -0.375 C4.79414062 -0.47941406 4.79414062 -0.47941406 5.859375 -0.5859375 C8 -0 8 -0 10.08203125 2.57421875 C12.0284116 6.05074739 13.52143418 9.46493361 14.9375 13.1875 C15.45895321 14.5333226 15.98240273 15.87837336 16.5078125 17.22265625 C16.76208008 17.87379395 17.01634766 18.52493164 17.27832031 19.19580078 C18.56883442 22.42208605 20.04849755 25.55657778 21.51171875 28.70703125 C24.03273512 34.28502811 26.40391183 39.92824522 28.7902832 45.56494141 C30.35722305 49.24893512 31.93082978 52.86504122 33.7578125 56.4296875 C35.23509331 59.48645094 35.31208176 61.64512105 35 65 C34 66 34 66 30.6875 66.4375 C27 66 27 66 24.75 63.5625 C23 60 23 60 20 51 C9.44 50.67 -1.12 50.34 -12 50 C-12.495 52.475 -12.495 52.475 -13 55 C-13.62108257 56.58117271 -14.28778061 58.14523081 -15 59.6875 C-15.350625 60.45449219 -15.70125 61.22148438 -16.0625 62.01171875 C-16.69283872 63.34856211 -17.33901936 64.67803871 -18 66 C-20.33294775 66.04241723 -22.66702567 66.04092937 -25 66 C-25.33 65.67 -25.66 65.34 -26 65 C-25.88521235 58.11274114 -23.94174332 53.25913272 -20.94140625 47.12109375 C-18.39771617 41.84634055 -16.22638241 36.4141194 -14 31 C-9.65779075 20.49149771 -5.11048456 10.16137164 0 0 Z M3 13 C-1.31937191 22.1521118 -4.80153316 31.40459949 -8 41 C-0.41 41 7.18 41 15 41 C13.11904496 35.35713488 11.30179304 30.14373246 8.9375 24.75 C7.23563957 20.85260971 5.55511569 16.9584763 4 13 C3.67 13 3.34 13 3 13 Z " fill="black" transform="translate(38,2)"/>
<path d="M0 0 C1.51683632 -0.00956978 1.51683632 -0.00956978 3.0643158 -0.01933289 C4.16014481 -0.02044571 5.25597382 -0.02155853 6.38500977 -0.02270508 C7.50706314 -0.02603348 8.62911652 -0.02936188 9.78517151 -0.03279114 C12.16162709 -0.03786085 14.5380898 -0.04019945 16.91455078 -0.04003906 C20.5578174 -0.04222517 24.20078116 -0.06037962 27.84399414 -0.0793457 C30.14933164 -0.08227963 32.45467059 -0.08426443 34.76000977 -0.08520508 C36.40071693 -0.09598335 36.40071693 -0.09598335 38.0745697 -0.10697937 C39.08894608 -0.10390274 40.10332245 -0.10082611 41.1484375 -0.09765625 C42.04175278 -0.09908127 42.93506805 -0.10050629 43.85545349 -0.10197449 C46.13891602 0.14526367 46.13891602 0.14526367 49.13891602 2.14526367 C49.32641602 5.27026367 49.32641602 5.27026367 49.13891602 8.14526367 C46.68616461 9.37163938 45.08833791 9.25941682 42.34985352 9.24291992 C41.40883789 9.23969727 40.46782227 9.23647461 39.49829102 9.2331543 C38.51344727 9.22477539 37.52860352 9.21639648 36.51391602 9.20776367 C35.02504883 9.20099609 35.02504883 9.20099609 33.50610352 9.1940918 C31.05031442 9.18228512 28.59464498 9.16581767 26.13891602 9.14526367 C26.14335724 9.81511795 26.14779846 10.48497223 26.15237427 11.17512512 C26.19655046 18.13398103 26.22675866 25.09279724 26.2487793 32.05175781 C26.25884969 34.65040708 26.27250673 37.24904498 26.28979492 39.84765625 C26.3139974 43.57839764 26.32538868 47.30898948 26.33422852 51.03979492 C26.34455109 52.20549515 26.35487366 53.37119537 26.36550903 54.57221985 C26.36573563 56.19356087 26.36573563 56.19356087 26.3659668 57.84765625 C26.37040802 58.80029861 26.37484924 59.75294098 26.37942505 60.73445129 C26.13891602 63.14526367 26.13891602 63.14526367 24.13891602 66.14526367 C20.57641602 66.39526367 20.57641602 66.39526367 17.13891602 66.14526367 C16.13891602 65.14526367 16.13891602 65.14526367 16.0186615 62.89903259 C16.02199242 61.41011253 16.02199242 61.41011253 16.02539062 59.89111328 C16.02546616 58.7700267 16.02554169 57.64894012 16.02561951 56.49388123 C16.03078079 55.27411087 16.03594208 54.05434052 16.04125977 52.79760742 C16.04267471 51.55604385 16.04408966 50.31448029 16.04554749 49.03529358 C16.05021011 45.72920877 16.05920105 42.42319221 16.07025146 39.11712646 C16.08046775 35.74565217 16.08504557 32.37417084 16.09008789 29.00268555 C16.10114206 22.38352593 16.11789865 15.76439874 16.13891602 9.14526367 C15.47770752 9.15050049 14.81649902 9.1557373 14.13525391 9.16113281 C11.1573175 9.18184023 8.1793962 9.19490379 5.20141602 9.20776367 C3.64003906 9.22033203 3.64003906 9.22033203 2.04711914 9.2331543 C1.05776367 9.23637695 0.0684082 9.23959961 -0.95092773 9.24291992 C-1.86737061 9.24815674 -2.78381348 9.25339355 -3.72802734 9.25878906 C-5.86108398 9.14526367 -5.86108398 9.14526367 -6.86108398 8.14526367 C-6.90201336 5.81228934 -6.90350122 3.47821143 -6.86108398 1.14526367 C-4.39550653 -0.08752506 -2.75725918 0.01177578 0 0 Z " fill="black" transform="translate(273.861083984375,1.854736328125)"/>
</svg>
